<?xml version="1.0" encoding="utf-8"?>
<!-- Generator: Adobe Illustrator 25.0.0, SVG Export Plug-In . SVG Version: 6.00 Build 0)  -->
<svg version="1.1" id="Layer_1" xmlns="http://www.w3.org/2000/svg" xmlns:xlink="http://www.w3.org/1999/xlink" x="0px" y="0px"
	 viewBox="0 0 74.8 60.8" style="enable-background:new 0 0 74.8 60.8;" xml:space="preserve">
<style type="text/css">
	.st0{fill:none;stroke:#FFFFFF;stroke-width:3.34;stroke-linecap:round;stroke-miterlimit:10;}
	.st1{fill:none;stroke:#FFFFFF;stroke-width:3.34;stroke-linecap:round;stroke-linejoin:round;stroke-miterlimit:10;}
</style>
<g>
	<path class="st0" d="M37.1,13.4v39.3c0,0-10.2-10.9-24.8-7.3c0-18.2,0-40.6,0-40.6S25.9,0.1,37.1,13.4z"/>
	<path class="st1" d="M12.4,12.7h-6c-0.9,0-1.6,0.7-1.6,1.6v40.9c0,0.5,0.5,0.8,0.9,0.7c4.1-1.6,20.5-7.1,31.4,0.4"/>
	<path class="st0" d="M37.1,13.4v39.3c0,0,10.2-10.9,24.8-7.3c0-18.2,0-40.6,0-40.6S48.4,0.1,37.1,13.4z"/>
	<path class="st1" d="M61.9,12.7h6c0.9,0,1.6,0.7,1.6,1.6v40.9c0,0.5-0.5,0.8-0.9,0.7c-4.1-1.6-20.5-7.1-31.4,0.4"/>
</g>
</svg>
